<?xml version="1.0" standalone="no"?>
<!DOCTYPE svg PUBLIC "-//W3C//DTD SVG 20010904//EN"
 "http://www.w3.org/TR/2001/REC-SVG-20010904/DTD/svg10.dtd">
<svg version="1.0" xmlns="http://www.w3.org/2000/svg"
 width="384.000000pt" height="384.000000pt" viewBox="0 0 384.000000 384.000000"
 preserveAspectRatio="xMidYMid meet">
<metadata>
Created by potrace 1.14, written by Peter Selinger 2001-2017
</metadata>
<g transform="translate(0.000000,384.000000) scale(0.100000,-0.100000)"
fill="#000000" stroke="none">
<path d="M0 1920 l0 -1920 1920 0 1920 0 0 1920 0 1920 -1920 0 -1920 0 0
-1920z m2365 1386 c177 -24 584 -91 590 -98 3 -4 -17 -602 -20 -606 -2 -2 -99
8 -216 22 -638 75 -914 80 -1037 20 -67 -33 -92 -77 -92 -162 0 -126 59 -153
490 -227 411 -71 623 -150 757 -282 145 -144 202 -335 190 -633 -12 -283 -100
-478 -276 -611 -185 -141 -426 -202 -801 -202 -250 0 -473 25 -928 105 l-125
21 7 191 c12 373 17 424 35 420 35 -8 564 -64 714 -75 186 -14 429 -7 507 15
102 29 150 85 150 175 0 131 -71 167 -474 241 -529 97 -769 217 -879 441 -54
112 -68 175 -74 347 -11 301 50 483 217 652 142 144 342 233 605 269 118 16
448 5 660 -23z"/>
</g>
</svg>
