<?xml version="1.0" encoding="utf-8"?>
<!-- Generator: Adobe Illustrator 22.1.0, SVG Export Plug-In . SVG Version: 6.00 Build 0)  -->
<svg version="1.1" id="Layer_1" xmlns="http://www.w3.org/2000/svg" xmlns:xlink="http://www.w3.org/1999/xlink" x="0px" y="0px"
	 viewBox="0 0 512 512" style="enable-background:new 0 0 512 512;" xml:space="preserve">
<g>
	<title>javascript</title>
	<g>
		<path d="M31,31h450v450H31V31z M444.2,373.7c-3.3-20.6-16.7-37.8-56.3-53.9c-13.8-6.4-29.2-11-33.7-21.4c-1.7-6.2-2-9.5-0.9-13.2
			c2.9-12.2,17.1-15.8,28.4-12.4c7.3,2.3,14.1,7.8,18.3,16.8c19.4-12.7,19.4-12.7,32.9-21.1c-5-7.8-7.5-11.3-11-14.6
			c-11.8-13.3-27.5-20-53.1-19.4l-13.3,1.7c-12.7,3.1-24.8,9.8-32.1,18.8c-21.3,24.2-15.2,66.4,10.7,83.9
			c25.6,19.1,63,23.3,67.8,41.3c4.5,22-16.3,29-36.9,26.4c-15.2-3.4-23.6-11-32.9-25l-34.3,19.7c3.9,9,8.4,12.9,15.2,20.8
			c32.6,32.9,114.2,31.2,128.8-18.8c0.5-1.7,4.5-13.3,1.4-30.9L444.2,373.7z M275.7,237.8h-42.1c0,36.3-0.2,72.4-0.2,108.8
			c0,23.1,1.2,44.3-2.6,50.8c-6.2,12.9-22.1,11.3-29.4,9c-7.4-3.7-11.2-8.7-15.5-16c-1.3-2-2.1-3.7-2.4-3.7l-34.2,21.1
			c5.7,11.8,14.1,22,24.8,28.4c16,9.6,37.6,12.7,60.1,7.6c14.7-4.2,27.3-13,33.9-26.4c9.6-17.4,7.5-38.8,7.5-62.8
			c0.2-38.5,0-77,0-115.9L275.7,237.8z"/>
	</g>
</g>
</svg>
